<svg width="50" height="42" viewBox="0 0 50 42" fill="none" xmlns="http://www.w3.org/2000/svg">
<path d="M43.4536 24.2631C42.9757 23.9381 42.4979 23.586 42.0466 23.2611C39.1265 21.176 35.6755 17.5744 35.0118 16.8704C34.6668 14.8123 34.0561 12.321 32.1183 9.45067C30.6052 6.74274 27.8709 5.17214 26.225 4.441C24.8181 0.758219 17.863 0.216634 15.1818 0.0270789C14.8633 -4.14291e-07 14.5447 0 14.2261 0C8.91694 0 7.82855 3.70986 7.61618 5.25338C6.28887 5.33462 5.14739 5.65956 4.16518 6.22823C1.11237 8.04254 0.26289 11.6983 0.0770667 14.4332C-0.0822104 16.9788 0.0505205 17.9806 0.0770667 18.1702C0.289436 20.2282 0.846906 21.7718 2.94405 23.4506C1.56366 29.8143 1.05927 37.234 1.03273 37.3153L1.00618 37.5048L1.11237 37.6673C1.21855 37.8298 4.05899 41.5938 10.2974 41.9729C10.5628 42 10.8548 42 11.1202 42C17.9427 42 20.438 36.6112 20.5442 36.3945L20.6504 36.1779L20.5707 35.9612C20.5707 35.9612 19.9602 34.2553 20.8893 31.1141C21.6591 28.5145 24.3934 28.0541 25.1101 27.9999C28.4018 30.5454 37.5602 35.4197 39.9495 36.3945C41.144 36.882 42.2855 37.1528 43.2943 37.1528C44.4888 37.1528 45.3914 36.7737 45.8161 36.1237C46.5329 34.9594 46.4002 33.8491 45.4179 32.8472C45.6834 32.9013 46.002 32.9284 46.347 32.9825C46.6656 33.0367 47.0904 33.0638 47.4886 33.0638C48.9486 33.0638 49.7715 32.3598 49.9839 30.8974C50.2228 29.1373 47.5682 27.1064 43.4536 24.2631ZM11.1468 41.4854C11.1202 41.4854 11.1202 41.4854 11.0938 41.4854C11.1999 41.4854 11.3061 41.4854 11.4388 41.4854C11.3327 41.4854 11.253 41.4854 11.1468 41.4854ZM14.12 0.568664C14.1465 0.568664 14.1997 0.568664 14.2261 0.568664C14.3058 0.568664 14.3589 0.568664 14.4386 0.568664C14.3589 0.568664 14.2261 0.541585 14.12 0.568664ZM17.8099 0.866536C18.1816 0.920695 18.5797 0.974853 18.9779 1.02901C18.5797 0.974853 18.1816 0.893615 17.8099 0.866536Z" fill="#121A2C"/>
<path d="M41.9141 23.7215C38.5959 21.3656 34.6936 17.1412 34.6936 17.1412C34.3485 14.9748 33.7645 12.5918 31.8532 9.77564C30.3135 7.01354 27.42 5.4971 25.9864 4.87428C24.9246 1.35398 17.9695 0.785311 15.3414 0.595757C8.1474 0.0541713 8.28014 6.03869 8.28014 6.03869L5.70516 14.7311L3.76728 23.1257C2.2807 29.6248 1.77632 37.3694 1.77632 37.3694C1.77632 37.3694 4.48403 41.0792 10.5631 41.4584C17.7305 41.8916 20.2791 36.1779 20.2791 36.1779C20.2791 36.1779 19.5888 34.3636 20.5975 30.9787C21.6063 27.5938 25.5086 27.4584 25.5086 27.4584C28.6676 29.9768 38.0384 34.9594 40.3744 35.9071C43.1353 37.0445 45.0732 36.6653 45.5775 35.8529C46.0819 35.0406 46.2943 34.0116 44.7811 32.8201C43.7989 32.0619 43.2149 31.6557 43.2149 31.6557C44.3298 31.9265 44.4626 32.1973 46.6394 32.4681C48.1791 32.6577 49.4002 32.6577 49.6657 30.8704C49.878 29.029 45.4182 26.2127 41.9141 23.7215Z" fill="#121A2C"/>
<path d="M11.2787 36.8009C7.08436 36.6655 4.64211 35.2032 3.81918 34.6345L3.52716 36.7467C3.52716 36.7467 6.73925 39.8337 10.9867 39.8337C12.4998 39.8337 15.473 39.9962 18.393 36.0968C18.393 36.0968 18.2869 35.2845 18.3399 34.1471C17.2781 35.2032 15.7119 36.9363 11.2787 36.8009Z" fill="#FEFFFF"/>
<path d="M3.52716 34.4179C3.52716 34.4179 3.63331 34.4991 3.81908 34.6345L3.84561 34.3908L3.52716 34.4179Z" fill="#121A2C"/>
<path d="M18.8454 33.6596L18.3677 33.6867C18.3677 33.8492 18.3412 33.9846 18.3412 34.1471C18.527 33.9575 18.6862 33.795 18.8454 33.6596Z" fill="#121A2C"/>
<path d="M32.4893 14.2979C30.7638 9.9923 27.6048 6.58034 24.0742 5.41593C20.5436 4.25152 15.2077 3.19543 13.562 7.25732C13.562 7.25732 5.75735 21.0678 5.25297 24.3173L3.87257 34.3908L3.84602 34.6345C4.64241 35.2031 7.11121 36.6654 11.3055 36.8008C15.7387 36.9362 17.3315 35.2031 18.3668 34.12C18.3668 33.9846 18.3933 33.8221 18.3933 33.6596C18.5261 32.1161 18.9243 30.1393 20.1188 28.6229C22.3752 25.7525 26.3041 25.6441 26.3041 25.6441C26.3041 25.6441 29.2773 25.9962 31.3479 23.8028C33.4184 21.6094 34.1883 18.6306 32.4893 14.2979Z" fill="#016666"/>
<path d="M35.0391 26.2669C35.0391 26.2669 37.9591 28.9207 39.021 29.8414C40.0829 30.7621 44.5161 33.9304 44.5426 34.6345C44.5426 34.7969 33.4198 29.4352 33.4198 29.4352C33.4198 29.4352 23.8897 22.6924 23.9427 22.5029C23.9959 22.3134 24.3409 20.9594 24.5534 20.8782C24.7657 20.7969 29.252 20.9594 29.252 20.9594L35.0391 26.2669Z" fill="#79455B"/>
<path d="M24.5 22.6384C25.2698 22.7467 29.6234 24.4256 32.1452 26.5377C34.6937 28.6499 38.9676 31.6828 40.2153 32.2786C41.4629 32.9014 44.622 34.2282 44.5424 34.7428C44.4627 35.2573 44.0911 36.1239 41.1975 34.9594C38.304 33.7679 30.7914 29.2186 29.7295 28.4874C28.6677 27.7563 23.3054 24.0194 23.3054 24.0194L24.5 22.6384Z" fill="#C8842C"/>
<path d="M15.9522 14.1354C17.0141 13.9187 20.2261 13.9458 22.695 16.383C25.1637 18.8201 25.5884 20.7698 24.8982 22.5028C24.208 24.2359 22.9339 25.5357 20.3854 24.1547C17.837 22.7736 15.3947 21.0677 14.6248 18.9555C13.855 16.8432 15.9522 14.1354 15.9522 14.1354Z" fill="#02A484"/>
<path d="M0.793477 18.1431C1.0324 20.3365 1.64295 21.7988 4.13829 23.5861C5.27978 24.3984 6.50091 25.0483 9.10243 24.8317C11.7305 24.615 13.5887 22.8278 14.4648 20.8781C15.3408 18.9285 16.8274 14.4332 15.739 10.8047C14.6771 7.17601 12.6862 6.68858 11.7039 6.36363C10.7217 6.01161 7.2442 5.17214 4.58958 6.74274C1.93497 8.31334 0.95275 11.5087 0.76693 14.5145C0.607653 17.2495 0.793477 18.1431 0.793477 18.1431Z" fill="#121A2C"/>
<path d="M5.41206 8.47586C5.41206 8.47586 6.76591 7.58225 9.2878 8.12384C11.8097 8.66542 13.3759 10.5068 13.3759 12.7544C13.3759 15.002 13.1105 19.0638 11.0664 21.1219C9.39399 22.8008 5.01387 23.6674 3.26182 20.2554C1.50977 16.8434 5.8368 14.325 5.8368 14.325L5.41206 8.47586Z" fill="#1565EA"/>
<path d="M18.6591 10.8047C18.314 9.69438 19.2165 8.25917 21.4996 7.77175C23.7825 7.28432 26.1451 7.77175 27.3662 9.9652C28.5873 12.1586 26.2778 13.2418 24.9505 13.5397C23.6232 13.8375 19.5085 13.5397 18.6591 10.8047Z" fill="#02A484"/>
<path d="M21.8438 15.0019C22.0561 13.4043 23.0649 12.2398 24.0736 12.1315C24.5515 12.0773 24.9231 12.3211 25.1886 12.6731C25.0558 12.2398 24.8435 11.8607 24.5781 11.5358C23.4631 10.2901 21.3128 11.2921 20.6492 13.7563C19.9856 16.2205 20.9147 18.1973 21.8703 18.4681C22.3216 18.6035 22.6933 18.5764 23.0383 18.4952C22.9587 18.4681 22.9056 18.4681 22.826 18.4139C21.3924 17.6828 21.7642 15.5977 21.8438 15.0019Z" fill="#FDFFFF"/>
<path d="M25.1906 12.6731C25.5888 13.9187 25.3763 15.4894 24.9251 16.4372C24.4738 17.3578 23.8898 18.2244 23.0138 18.4681" fill="#121A2C"/>
<path d="M24.9246 16.437C25.3758 15.4893 25.5617 13.9186 25.1901 12.673C24.9246 12.321 24.5264 12.0772 24.0751 12.1314C23.0664 12.2397 22.031 13.4041 21.8453 15.0018C21.7656 15.5975 21.4205 17.7097 22.8274 18.3867C22.9071 18.4137 22.9601 18.4408 23.0398 18.4679C23.9158 18.2242 24.4999 17.3577 24.9246 16.437Z" fill="#121A2C"/>
<path d="M46.2143 29.9497C45.5507 29.2998 44.7012 28.5686 44.9667 28.2437C45.1259 28.0542 45.5241 28.0271 46.1081 28.2437C44.887 27.3772 43.3208 26.3211 41.6484 25.1296C37.8788 22.4488 33.4191 18.1973 32.9678 17.8723C31.4281 16.7351 31.1627 17.9536 31.1361 18.5493C31.1095 19.1451 31.1095 19.8763 29.7557 20.499C28.4018 21.1219 26.8356 20.5261 25.9065 20.3907C24.9774 20.2554 25.057 21.0135 25.5083 21.3927C27.0215 22.6384 42.6572 30.383 45.9489 31.0599C46.055 31.087 46.1347 31.087 46.2409 31.1141C46.3736 30.8975 46.6922 30.4101 46.2143 29.9497Z" fill="#FFCC34"/>
<path d="M48.4707 30.6268C48.577 30.1935 47.5948 29.354 46.0816 28.2438C45.4977 28.0001 45.0994 28.0543 44.9402 28.2438C44.7012 28.5417 45.5507 29.2998 46.1878 29.9498C46.6657 30.4101 46.3736 30.8976 46.1613 31.1142C47.9664 31.4662 48.3115 31.3849 48.4707 30.6268Z" fill="#C8842C"/>
<path d="M32.6223 21.5821C32.8878 22.2591 34.1885 22.9903 34.8787 22.8278C35.5955 22.6653 35.2505 21.9341 34.3744 21.0676C33.4984 20.2282 32.118 20.2552 32.6223 21.5821Z" fill="#C8842C"/>
<path d="M7.24402 24.4255L7.40329 39.4274L9.20843 39.9961L8.96952 24.4255H7.24402Z" fill="#121A2C"/>
<path d="M10.9081 18.9825C9.50121 22.232 7.13861 22.1237 5.12109 21.6092C2.9974 21.0676 2.43993 18.9283 2.36029 16.9245C2.33374 15.8413 2.73194 11.3461 4.11234 9.50474C5.49274 7.66335 8.04118 8.1237 8.81102 8.34033C9.58085 8.55697 12.4479 9.99214 12.0231 13.5125C11.5984 17.2224 11.4391 17.7639 10.9081 18.9825Z" fill="white"/>
<path d="M3.84602 18.2514L4.2973 16.6267C4.2973 16.6267 6.20863 17.6558 7.1112 17.2766C7.98722 16.8975 7.58903 15.9497 6.60683 15.5435C5.62462 15.1103 4.3504 14.4333 4.85478 12.4295C5.35915 10.4255 6.68646 9.82976 9.87202 11.0484L9.28799 12.7814C9.28799 12.7814 6.68646 11.4546 6.44755 12.8626C6.28827 13.9188 10.0313 14.0542 9.36763 17.0058C8.43851 20.7156 3.84602 18.2514 3.84602 18.2514Z" fill="#1565EA"/>
</svg>
